<svg width="236" height="38" viewBox="0 0 236 38" fill="none" xmlns="http://www.w3.org/2000/svg">
<path d="M43.9712 2H5.02885C3.35606 2 2 3.33195 2 4.975V33.025C2 34.668 3.35606 36 5.02885 36H43.9712C45.6439 36 47 34.668 47 33.025V4.975C47 3.33195 45.6439 2 43.9712 2Z" stroke="white" stroke-width="3" stroke-linejoin="round"/>
<path d="M44.2 28H41.8C40.2536 28 39 29.2536 39 30.8V33.2C39 34.7464 40.2536 36 41.8 36H44.2C45.7464 36 47 34.7464 47 33.2V30.8C47 29.2536 45.7464 28 44.2 28Z" stroke="white" stroke-width="3" stroke-linejoin="round"/>
<path d="M44.2 20H41.8C40.2536 20 39 21.2536 39 22.8V25.2C39 26.7464 40.2536 28 41.8 28H44.2C45.7464 28 47 26.7464 47 25.2V22.8C47 21.2536 45.7464 20 44.2 20Z" stroke="white" stroke-width="3" stroke-linejoin="round"/>
<path d="M44.2 10H41.8C40.2536 10 39 11.567 39 13.5V16.5C39 18.433 40.2536 20 41.8 20H44.2C45.7464 20 47 18.433 47 16.5V13.5C47 11.567 45.7464 10 44.2 10Z" stroke="white" stroke-width="3" stroke-linejoin="round"/>
<path d="M44.2 2H41.8C40.2536 2 39 3.2536 39 4.8V7.2C39 8.7464 40.2536 10 41.8 10H44.2C45.7464 10 47 8.7464 47 7.2V4.8C47 3.2536 45.7464 2 44.2 2Z" stroke="white" stroke-width="3" stroke-linejoin="round"/>
<path d="M7.85 28H5.15C3.4103 28 2 29.2536 2 30.8V33.2C2 34.7464 3.4103 36 5.15 36H7.85C9.5897 36 11 34.7464 11 33.2V30.8C11 29.2536 9.5897 28 7.85 28Z" stroke="white" stroke-width="3" stroke-linejoin="round"/>
<path d="M7.85 20H5.15C3.4103 20 2 21.2536 2 22.8V25.2C2 26.7464 3.4103 28 5.15 28H7.85C9.5897 28 11 26.7464 11 25.2V22.8C11 21.2536 9.5897 20 7.85 20Z" stroke="white" stroke-width="3" stroke-linejoin="round"/>
<path d="M7.85 10H5.15C3.4103 10 2 11.567 2 13.5V16.5C2 18.433 3.4103 20 5.15 20H7.85C9.5897 20 11 18.433 11 16.5V13.5C11 11.567 9.5897 10 7.85 10Z" stroke="white" stroke-width="3" stroke-linejoin="round"/>
<path d="M7.85 2H5.15C3.4103 2 2 3.2536 2 4.8V7.2C2 8.7464 3.4103 10 5.15 10H7.85C9.5897 10 11 8.7464 11 7.2V4.8C11 3.2536 9.5897 2 7.85 2Z" stroke="white" stroke-width="3" stroke-linejoin="round"/>
<path d="M35.9375 2H14.0625C12.3711 2 11 3.4103 11 5.15V16.85C11 18.5897 12.3711 20 14.0625 20H35.9375C37.6289 20 39 18.5897 39 16.85V5.15C39 3.4103 37.6289 2 35.9375 2Z" stroke="white" stroke-width="3" stroke-linejoin="round"/>
<path d="M35.9375 20H14.0625C12.3711 20 11 21.2536 11 22.8V33.2C11 34.7464 12.3711 36 14.0625 36H35.9375C37.6289 36 39 34.7464 39 33.2V22.8C39 21.2536 37.6289 20 35.9375 20Z" stroke="white" stroke-width="3" stroke-linejoin="round"/>
<path d="M59.5284 34V4.90909H71.0057C73.2027 4.90909 75.0777 5.30208 76.6307 6.08807C78.1932 6.86458 79.3816 7.9678 80.196 9.39773C81.0199 10.8182 81.4318 12.4896 81.4318 14.4119C81.4318 16.3437 81.0152 18.0057 80.1818 19.3977C79.3485 20.7803 78.1411 21.8409 76.5597 22.5795C74.9877 23.3182 73.0843 23.6875 70.8494 23.6875H63.1648V18.7443H69.8551C71.0294 18.7443 72.0047 18.5833 72.7812 18.2614C73.5578 17.9394 74.1354 17.4564 74.5142 16.8125C74.9025 16.1686 75.0966 15.3684 75.0966 14.4119C75.0966 13.446 74.9025 12.6316 74.5142 11.9688C74.1354 11.3059 73.553 10.804 72.767 10.4631C71.9905 10.1127 71.0104 9.9375 69.8267 9.9375H65.679V34H59.5284ZM75.2386 20.7614L82.4688 34H75.679L68.6051 20.7614H75.2386ZM95.2564 34.4261C93.0121 34.4261 91.0803 33.9716 89.4609 33.0625C87.8511 32.1439 86.6106 30.8466 85.7393 29.1705C84.8681 27.4848 84.4325 25.4915 84.4325 23.1903C84.4325 20.946 84.8681 18.9763 85.7393 17.2812C86.6106 15.5862 87.8369 14.2652 89.4183 13.3182C91.0092 12.3712 92.8748 11.8977 95.0149 11.8977C96.4543 11.8977 97.7943 12.1297 99.0348 12.5938C100.285 13.0483 101.374 13.7348 102.302 14.6534C103.239 15.572 103.969 16.7273 104.489 18.1193C105.01 19.5019 105.271 21.1212 105.271 22.9773V24.6392H86.8473V20.8892H99.5746C99.5746 20.018 99.3852 19.2462 99.0064 18.5739C98.6276 17.9015 98.102 17.3759 97.4297 16.9972C96.7668 16.6089 95.995 16.4148 95.1143 16.4148C94.1958 16.4148 93.3814 16.6278 92.6712 17.054C91.9704 17.4706 91.4212 18.0341 91.0234 18.7443C90.6257 19.4451 90.4221 20.2263 90.4126 21.0881V24.6534C90.4126 25.733 90.6115 26.6657 91.0092 27.4517C91.4164 28.2377 91.9893 28.8438 92.728 29.2699C93.4666 29.696 94.3426 29.9091 95.3558 29.9091C96.0282 29.9091 96.6437 29.8144 97.2024 29.625C97.7611 29.4356 98.2393 29.1515 98.6371 28.7727C99.0348 28.3939 99.3378 27.9299 99.5462 27.3807L105.143 27.75C104.859 29.0947 104.276 30.2689 103.396 31.2727C102.524 32.267 101.397 33.0436 100.015 33.6023C98.6418 34.1515 97.0556 34.4261 95.2564 34.4261ZM119.163 34.4261C116.918 34.4261 114.987 33.9716 113.367 33.0625C111.757 32.1439 110.517 30.8466 109.646 29.1705C108.774 27.4848 108.339 25.4915 108.339 23.1903C108.339 20.946 108.774 18.9763 109.646 17.2812C110.517 15.5862 111.743 14.2652 113.325 13.3182C114.915 12.3712 116.781 11.8977 118.921 11.8977C120.361 11.8977 121.701 12.1297 122.941 12.5938C124.191 13.0483 125.28 13.7348 126.208 14.6534C127.146 15.572 127.875 16.7273 128.396 18.1193C128.916 19.5019 129.177 21.1212 129.177 22.9773V24.6392H110.754V20.8892H123.481C123.481 20.018 123.291 19.2462 122.913 18.5739C122.534 17.9015 122.008 17.3759 121.336 16.9972C120.673 16.6089 119.901 16.4148 119.021 16.4148C118.102 16.4148 117.288 16.6278 116.577 17.054C115.877 17.4706 115.327 18.0341 114.93 18.7443C114.532 19.4451 114.328 20.2263 114.319 21.0881V24.6534C114.319 25.733 114.518 26.6657 114.915 27.4517C115.323 28.2377 115.896 28.8438 116.634 29.2699C117.373 29.696 118.249 29.9091 119.262 29.9091C119.934 29.9091 120.55 29.8144 121.109 29.625C121.667 29.4356 122.146 29.1515 122.543 28.7727C122.941 28.3939 123.244 27.9299 123.452 27.3807L129.049 27.75C128.765 29.0947 128.183 30.2689 127.302 31.2727C126.431 32.267 125.304 33.0436 123.921 33.6023C122.548 34.1515 120.962 34.4261 119.163 34.4261ZM139.177 4.90909V34H133.126V4.90909H139.177ZM144.138 34V4.90909H155.615C157.812 4.90909 159.687 5.30208 161.24 6.08807C162.803 6.86458 163.991 7.9678 164.805 9.39773C165.629 10.8182 166.041 12.4896 166.041 14.4119C166.041 16.3437 165.625 18.0057 164.791 19.3977C163.958 20.7803 162.75 21.8409 161.169 22.5795C159.597 23.3182 157.694 23.6875 155.459 23.6875H147.774V18.7443H154.464C155.639 18.7443 156.614 18.5833 157.391 18.2614C158.167 17.9394 158.745 17.4564 159.124 16.8125C159.512 16.1686 159.706 15.3684 159.706 14.4119C159.706 13.446 159.512 12.6316 159.124 11.9688C158.745 11.3059 158.162 10.804 157.376 10.4631C156.6 10.1127 155.62 9.9375 154.436 9.9375H150.288V34H144.138ZM159.848 20.7614L167.078 34H160.288L153.214 20.7614H159.848ZM179.866 34.4261C177.621 34.4261 175.69 33.9716 174.07 33.0625C172.46 32.1439 171.22 30.8466 170.349 29.1705C169.478 27.4848 169.042 25.4915 169.042 23.1903C169.042 20.946 169.478 18.9763 170.349 17.2812C171.22 15.5862 172.446 14.2652 174.028 13.3182C175.619 12.3712 177.484 11.8977 179.624 11.8977C181.064 11.8977 182.404 12.1297 183.644 12.5938C184.894 13.0483 185.983 13.7348 186.911 14.6534C187.849 15.572 188.578 16.7273 189.099 18.1193C189.62 19.5019 189.88 21.1212 189.88 22.9773V24.6392H171.457V20.8892H184.184C184.184 20.018 183.995 19.2462 183.616 18.5739C183.237 17.9015 182.711 17.3759 182.039 16.9972C181.376 16.6089 180.604 16.4148 179.724 16.4148C178.805 16.4148 177.991 16.6278 177.281 17.054C176.58 17.4706 176.031 18.0341 175.633 18.7443C175.235 19.4451 175.031 20.2263 175.022 21.0881V24.6534C175.022 25.733 175.221 26.6657 175.619 27.4517C176.026 28.2377 176.599 28.8438 177.337 29.2699C178.076 29.696 178.952 29.9091 179.965 29.9091C180.638 29.9091 181.253 29.8144 181.812 29.625C182.371 29.4356 182.849 29.1515 183.246 28.7727C183.644 28.3939 183.947 27.9299 184.156 27.3807L189.752 27.75C189.468 29.0947 188.886 30.2689 188.005 31.2727C187.134 32.267 186.007 33.0436 184.624 33.6023C183.251 34.1515 181.665 34.4261 179.866 34.4261ZM203.687 34.4261C201.452 34.4261 199.53 33.9527 197.92 33.0057C196.319 32.0492 195.088 30.7235 194.227 29.0284C193.374 27.3333 192.948 25.3826 192.948 23.1761C192.948 20.9413 193.379 18.9811 194.241 17.2955C195.112 15.6004 196.348 14.2794 197.948 13.3324C199.549 12.3759 201.452 11.8977 203.658 11.8977C205.562 11.8977 207.228 12.2434 208.658 12.9347C210.088 13.6259 211.22 14.5966 212.053 15.8466C212.887 17.0966 213.346 18.5644 213.431 20.25H207.721C207.56 19.161 207.134 18.285 206.442 17.6222C205.761 16.9498 204.866 16.6136 203.758 16.6136C202.82 16.6136 202.001 16.8693 201.3 17.3807C200.609 17.8826 200.069 18.6165 199.681 19.5824C199.293 20.5483 199.099 21.7178 199.099 23.0909C199.099 24.483 199.288 25.6667 199.667 26.642C200.055 27.6174 200.6 28.3608 201.3 28.8722C202.001 29.3835 202.82 29.6392 203.758 29.6392C204.449 29.6392 205.069 29.4972 205.619 29.2131C206.177 28.929 206.637 28.517 206.996 27.9773C207.366 27.428 207.607 26.7699 207.721 26.0028H213.431C213.336 27.6695 212.882 29.1373 212.067 30.4062C211.263 31.6657 210.15 32.6506 208.729 33.3608C207.309 34.071 205.628 34.4261 203.687 34.4261ZM235.459 18.4034L229.919 18.7443C229.824 18.2708 229.621 17.8447 229.308 17.4659C228.996 17.0777 228.584 16.7699 228.072 16.5426C227.571 16.3059 226.969 16.1875 226.268 16.1875C225.331 16.1875 224.54 16.3864 223.896 16.7841C223.252 17.1723 222.93 17.6932 222.93 18.3466C222.93 18.8674 223.139 19.3078 223.555 19.6676C223.972 20.0275 224.687 20.3163 225.7 20.5341L229.649 21.3295C231.77 21.7652 233.352 22.4659 234.393 23.4318C235.435 24.3977 235.956 25.6667 235.956 27.2386C235.956 28.6686 235.535 29.9233 234.692 31.0028C233.858 32.0824 232.713 32.9252 231.254 33.5312C229.805 34.1278 228.134 34.4261 226.24 34.4261C223.352 34.4261 221.051 33.8248 219.337 32.6222C217.632 31.41 216.633 29.7623 216.339 27.679L222.291 27.3665C222.471 28.2472 222.907 28.9195 223.598 29.3835C224.289 29.8381 225.175 30.0653 226.254 30.0653C227.315 30.0653 228.167 29.8617 228.811 29.4545C229.464 29.0379 229.796 28.5028 229.805 27.8494C229.796 27.3002 229.564 26.8504 229.109 26.5C228.655 26.1402 227.954 25.8655 227.007 25.6761L223.229 24.9233C221.098 24.4972 219.512 23.7585 218.47 22.7074C217.438 21.6562 216.922 20.3163 216.922 18.6875C216.922 17.286 217.301 16.0786 218.058 15.0653C218.825 14.0521 219.9 13.2708 221.283 12.7216C222.675 12.1723 224.304 11.8977 226.169 11.8977C228.925 11.8977 231.093 12.4801 232.675 13.6449C234.266 14.8097 235.194 16.3958 235.459 18.4034Z" fill="white"/>
</svg>
